HIERARCHY
ROOT Hips
{
  OFFSET 52.7991 94.0837 12.9887
  CHANNELS 6 Xposition Yposition Zposition Zrotation Xrotation Yrotation
  JOINT spine
  {
    OFFSET 0 7.80059 0.448573
    CHANNELS 3 Zrotation Xrotation Yrotation
    JOINT spine1
    {
      OFFSET 0 10.1364 0
      CHANNELS 3 Zrotation Xrotation Yrotation
      JOINT spine2
      {
        OFFSET 0 9.71251 0
        CHANNELS 3 Zrotation Xrotation Yrotation
        JOINT Neck
        {
          OFFSET 0 24.9361 1.18887
          CHANNELS 3 Zrotation Xrotation Yrotation
          JOINT Head
          {
            OFFSET 0 7.53384 0
            CHANNELS 3 Zrotation Xrotation Yrotation
            End Site
            {
              OFFSET 0 18.2361 -6.01402
            }
          }
        }
        JOINT RightShoulder
        {
          OFFSET -4.08965 10.4888 -0.569457
          CHANNELS 3 Zrotation Xrotation Yrotation
          JOINT RightArm
          {
            OFFSET 0 13.757 0
            CHANNELS 3 Zrotation Xrotation Yrotation
            JOINT RightArmRoll
            {
              OFFSET 0 6.94478 0
              CHANNELS 3 Zrotation Xrotation Yrotation
              JOINT RightForeArm
              {
                OFFSET 0 20.2277 0
                CHANNELS 3 Zrotation Xrotation Yrotation
                JOINT RightForeArmRoll
                {
                  OFFSET 0 7.79312 0
                  CHANNELS 3 Zrotation Xrotation Yrotation
                  JOINT RightHand
                  {
                    OFFSET 0 15.6391 0
                    CHANNELS 3 Zrotation Xrotation Yrotation
                    End Site
                    {
                      OFFSET 0 0 0
                    }
                  }
                }
              }
            }
          }
        }
        JOINT LeftShoulder
        {
          OFFSET 4.08965 10.4888 -0.569457
          CHANNELS 3 Zrotation Xrotation Yrotation
          JOINT LeftArm
          {
            OFFSET 0 13.757 0
            CHANNELS 3 Zrotation Xrotation Yrotation
            JOINT LeftArmRoll
            {
              OFFSET 0 6.94478 0
              CHANNELS 3 Zrotation Xrotation Yrotation
              JOINT LeftForeArm
              {
                OFFSET 0 20.2277 0
                CHANNELS 3 Zrotation Xrotation Yrotation
                JOINT LeftForeArmRoll
                {
                  OFFSET 0 7.79312 0
                  CHANNELS 3 Zrotation Xrotation Yrotation
                  JOINT LeftHand
                  {
                    OFFSET 0 15.6391 0
                    CHANNELS 3 Zrotation Xrotation Yrotation
                    End Site
                    {
                      OFFSET 0 0 0
                    }
                  }
                }
              }
            }
          }
        }
      }
    }
  }
  JOINT RightUpLeg
  {
    OFFSET -6.91416 -1.26788 -1.06358
    CHANNELS 3 Zrotation Xrotation Yrotation
    JOINT RightUpLegRoll
    {
      OFFSET 0 18.3378 0
      CHANNELS 3 Zrotation Xrotation Yrotation
      JOINT RightLeg
      {
        OFFSET 0 -22.7085 0
        CHANNELS 3 Zrotation Xrotation Yrotation
        JOINT RightLegRoll
        {
          OFFSET 0 22.7828 0
          CHANNELS 3 Zrotation Xrotation Yrotation
          JOINT RightFoot
          {
            OFFSET 0 18.9629 0
            CHANNELS 3 Zrotation Xrotation Yrotation
            JOINT RightToeBase
            {
              OFFSET 0 15.852 0
              CHANNELS 3 Zrotation Xrotation Yrotation
              End Site
              {
                OFFSET 0.00671906 7.67701 -0.884892
              }
            }
          }
        }
      }
    }
  }
  JOINT LeftUpLeg
  {
    OFFSET 6.91416 -1.26788 -1.06358
    CHANNELS 3 Zrotation Xrotation Yrotation
    JOINT LeftUpLegRoll
    {
      OFFSET 0 18.3379 0
      CHANNELS 3 Zrotation Xrotation Yrotation
      JOINT LeftLeg
      {
        OFFSET 0 22.7084 0
        CHANNELS 3 Zrotation Xrotation Yrotation
        JOINT LeftLegRoll
        {
          OFFSET 0 22.9934 0
          CHANNELS 3 Zrotation Xrotation Yrotation
          JOINT LeftFoot
          {
            OFFSET 0 18.7522 0
            CHANNELS 3 Zrotation Xrotation Yrotation
            JOINT LeftToeBase
            {
              OFFSET 0 15.852 0
              CHANNELS 3 Zrotation Xrotation Yrotation
              End Site
              {
                OFFSET -0.030112 7.67701 -0.884893
              }
            }
          }
        }
      }
    }
  }
}
MOTION
Frames: 13
Frame Time: 0.00208333
53.9684 94.1533 12.3406 -0.116674 -3.40473 -0.294729 0.142706 -1.49026 0.389126 0.307429 1.02338 0.772765 0.298296 2.66836 0.767878 -8.07193 21.8485 6.10848 3.19686 -13.5487 4.02235 82.2813 -4.0891 -4.12931 89.0152 11.8463 20.5302 -2.82914e-006 4.06839e-007 9.2969e-006 7.9203 19.571 -2.74086 -1.2275e-006 -9.43724e-007 -3 8.02921 -4.95153 0.697703 -66.0973 -0.821702 1.32443 -107.405 1.7665 -10.7381 -1.78281e-005 2.34208e-007 -2.09019e-007 -6.31661 22.0638 2.62817 2.33131e-006 -1.16313e-006 3.00756 -8.02942 -4.9516 -0.697702 175.136 0.228992 1.20591 180 7.01587e-015 179.115 178.68 7.74643 179.462 2.7829e-006 3.15208e-006 -0.0934104 -14.1645 67.4029 19.0755 8.13649 25.2327 -3.48774 179.931 -1.09874 6.65093 4.54188e-006 -4.6773e-006 -1.37692 -5.02608 -10.5666 -0.265103 1.97748e-006 2.79695e-007 -0.210485 24.4275 71.6145 -23.4136 -8.13649 25.2327 3.48774 
53.9709 94.1485 12.3396 -0.118179 -3.40289 -0.29082 0.142706 -1.49118 0.389096 0.306518 1.02154 0.772943 0.297387 2.66652 0.768079 -8.07422 21.8243 6.10423 3.19974 -13.5229 4.01868 82.2762 -4.09042 -4.1295 89.0442 11.7952 20.467 -2.82914e-006 4.06839e-007 9.2969e-006 7.9566 19.6591 -2.75523 -1.2275e-006 -9.43724e-007 -3 8.02921 -4.95153 0.697703 -66.0932 -0.835899 1.33155 -107.453 1.7548 -10.7858 -1.78281e-005 2.34208e-007 -2.09019e-007 -6.27292 22.0698 2.61713 2.33131e-006 -1.16313e-006 3.00756 -8.02942 -4.9516 -0.697702 175.142 0.234998 1.19887 180 7.01587e-015 179.115 178.686 7.75834 179.461 2.7829e-006 3.15208e-006 -0.093414 -14.1674 67.4116 19.0816 8.13649 25.2327 -3.48774 179.934 -1.09198 6.64678 4.54188e-006 -4.6773e-006 -1.37692 -5.02753 -10.5752 -0.265516 1.97748e-006 2.79695e-007 -0.210442 24.4334 71.618 -23.4164 -8.13649 25.2327 3.48774 
53.9682 94.1479 12.3415 -0.119772 -3.40164 -0.28717 0.142708 -1.49199 0.3891 0.305581 1.01991 0.773223 0.29645 2.66489 0.768382 -8.07582 21.8001 6.09996 3.20228 -13.4969 4.01511 82.2721 -4.0917 -4.12972 89.0714 11.7449 20.4044 -2.82914e-006 4.06839e-007 9.2969e-006 7.99302 19.7444 -2.76931 -1.2275e-006 -9.43724e-007 -3 8.02921 -4.95153 0.697703 -66.0886 -0.850413 1.33879 -107.502 1.74318 -10.8329 -1.78281e-005 2.34208e-007 -2.09019e-007 -6.22944 22.0761 2.60617 2.33131e-006 -1.16313e-006 3.00756 -8.02942 -4.9516 -0.697702 175.149 0.240296 1.19176 180 7.01587e-015 179.115 178.693 7.77023 179.46 2.7829e-006 3.15208e-006 -0.0934194 -14.1706 67.4203 19.0878 8.13649 25.2327 -3.48774 179.937 -1.08608 6.64247 4.54188e-006 -4.6773e-006 -1.37692 -5.02898 -10.5836 -0.265912 1.97748e-006 2.79695e-007 -0.210379 24.4393 71.6215 -23.4191 -8.13649 25.2327 3.48774 
53.9692 94.1525 12.3309 -0.121426 -3.40081 -0.283701 0.142713 -1.49274 0.389127 0.304626 1.01841 0.773574 0.295494 2.6634 0.768757 -8.07695 21.776 6.09567 3.20459 -13.4708 4.01162 82.2685 -4.09295 -4.12998 89.0973 11.6952 20.342 -2.82914e-006 4.06839e-007 9.2969e-006 8.02952 19.8278 -2.78319 -1.2275e-006 -9.43724e-007 -3 8.02921 -4.95153 0.697703 -66.0836 -0.865148 1.3461 -107.551 1.73162 -10.8796 -1.78281e-005 2.34208e-007 -2.09019e-007 -6.1861 22.0825 2.59525 2.33131e-006 -1.16313e-006 3.00756 -8.02942 -4.9516 -0.697702 175.155 0.245098 1.18462 180 7.01587e-015 179.115 178.699 7.78214 179.459 2.7829e-006 3.15208e-006 -0.0934259 -14.1738 67.4292 19.0942 8.13649 25.2327 -3.48774 179.941 -1.08077 6.63806 4.54188e-006 -4.6773e-006 -1.37691 -5.03044 -10.5919 -0.266295 1.97748e-006 2.79695e-007 -0.2103 24.4452 71.6252 -23.4218 -8.13649 25.2327 3.48774 
53.9663 94.1496 12.3331 -0.123117 -3.40021 -0.280336 0.14272 -1.49344 0.389167 0.30366 1.017 0.773966 0.294528 2.66199 0.769174 -8.07781 21.7518 6.09137 3.20676 -13.4446 4.00818 82.2652 -4.09419 -4.13024 89.1225 11.6459 20.2799 -2.82914e-006 4.06839e-007 9.2969e-006 8.0661 19.9101 -2.79697 -1.2275e-006 -9.43724e-007 -3 8.02921 -4.95153 0.697703 -66.0785 -0.880009 1.35346 -107.601 1.72009 -10.9262 -1.78281e-005 2.34208e-007 -2.09019e-007 -6.14284 22.089 2.58435 2.33131e-006 -1.16313e-006 3.00756 -8.02942 -4.9516 -0.697702 175.161 0.249618 1.17746 180 7.01587e-015 179.115 178.706 7.794 179.458 2.7829e-006 3.15208e-006 -0.0934332 -14.1771 67.4381 19.1005 8.13649 25.2327 -3.48774 179.944 -1.07581 6.6336 4.54188e-006 -4.6773e-006 -1.37691 -5.0319 -10.6001 -0.266672 1.97748e-006 2.79695e-007 -0.210214 24.4511 71.6289 -23.4245 -8.13649 25.2327 3.48774 
53.9673 94.1451 12.3511 -0.124815 -3.39966 -0.276996 0.142727 -1.49414 0.38921 0.302692 1.01561 0.774368 0.293558 2.6606 0.7696 -8.07861 21.7276 6.08707 3.20891 -13.4183 4.00475 82.2621 -4.09542 -4.13052 89.1473 11.5966 20.2179 -2.82914e-006 4.06839e-007 9.2969e-006 8.10272 19.9921 -2.81073 -1.2275e-006 -9.43724e-007 -3 8.02921 -4.95153 0.697703 -66.0732 -0.894902 1.36084 -107.65 1.70856 -10.9726 -1.78281e-005 2.34208e-007 -2.09019e-007 -6.0996 22.0956 2.57346 2.33131e-006 -1.16313e-006 3.00756 -8.02942 -4.9516 -0.697702 175.168 0.254067 1.17029 180 7.01587e-015 179.115 178.713 7.8059 179.457 2.7829e-006 3.15208e-006 -0.0934406 -14.1804 67.4471 19.1069 8.13649 25.2327 -3.48774 179.948 -1.07093 6.62911 4.54188e-006 -4.6773e-006 -1.37691 -5.03336 -10.6083 -0.267047 1.97748e-006 2.79695e-007 -0.210125 24.457 71.6326 -23.4273 -8.13649 25.2327 3.48774 
53.9679 94.1451 12.3479 -0.126497 -3.399 -0.273605 0.142733 -1.49485 0.389247 0.301728 1.01418 0.774749 0.292595 2.65917 0.770006 -8.07955 21.7035 6.08278 3.21113 -13.3921 4.0013 82.2587 -4.09667 -4.13078 89.1724 11.547 20.1558 -2.82914e-006 4.06839e-007 9.2969e-006 8.13938 20.0746 -2.82457 -1.2275e-006 -9.43724e-007 -3 8.02921 -4.95153 0.697703 -66.0681 -0.909731 1.36819 -107.7 1.69703 -11.0192 -1.78281e-005 2.34208e-007 -2.09019e-007 -6.05631 22.1021 2.56256 2.33131e-006 -1.16313e-006 3.00756 -8.02942 -4.9516 -0.697702 175.174 0.258657 1.16313 180 7.01587e-015 179.115 178.72 7.81778 179.456 2.7829e-006 3.15208e-006 -0.0934477 -14.1837 67.456 19.1133 8.13649 25.2327 -3.48774 179.951 -1.06588 6.62466 4.54188e-006 -4.6773e-006 -1.37691 -5.03482 -10.6166 -0.267426 1.97748e-006 2.79695e-007 -0.21004 24.463 71.6362 -23.43 -8.13649 25.2327 3.48774 
53.9661 94.1461 12.3226 -0.128134 -3.39805 -0.270084 0.142738 -1.49562 0.389267 0.300778 1.01264 0.77508 0.291644 2.65763 0.770361 -8.08083 21.6793 6.07851 3.21352 -13.366 3.99779 82.255 -4.09793 -4.13103 89.1982 11.497 20.0935 -2.82914e-006 4.06839e-007 9.2969e-006 8.17604 20.1585 -2.8386 -1.2275e-006 -9.43724e-007 -3 8.02921 -4.95153 0.697703 -66.0632 -0.924402 1.37548 -107.749 1.68546 -11.0661 -1.78281e-005 2.34208e-007 -2.09019e-007 -6.01292 22.1085 2.55162 2.33131e-006 -1.16313e-006 3.00756 -8.02942 -4.9516 -0.697702 175.181 0.263601 1.156 180 7.01587e-015 179.115 178.726 7.82967 179.455 2.7829e-006 3.15208e-006 -0.093454 -14.1869 67.4648 19.1196 8.13649 25.2327 -3.48774 179.955 -1.0604 6.62028 4.54188e-006 -4.6773e-006 -1.3769 -5.03628 -10.6249 -0.267813 1.97748e-006 2.79695e-007 -0.209966 24.4689 71.6398 -23.4327 -8.13649 25.2327 3.48774 
53.962 94.1443 12.328 -0.129702 -3.39662 -0.266357 0.142739 -1.49646 0.389261 0.299849 1.01095 0.775329 0.290716 2.65594 0.770634 -8.08267 21.6551 6.07426 3.21618 -13.3401 3.99421 82.2506 -4.09922 -4.13124 89.2252 11.4461 20.0309 -2.82914e-006 4.06839e-007 9.2969e-006 8.2127 20.2447 -2.8529 -1.2275e-006 -9.43724e-007 -3 8.02921 -4.95153 0.697703 -66.0588 -0.938821 1.38268 -107.798 1.67383 -11.1133 -1.78281e-005 2.34208e-007 -2.09019e-007 -5.96936 22.1147 2.54063 2.33131e-006 -1.16313e-006 3.00756 -8.02942 -4.9516 -0.697702 175.187 0.269112 1.14891 180 7.01587e-015 179.115 178.733 7.84157 179.454 2.7829e-006 3.15208e-006 -0.0934588 -14.19 67.4736 19.1258 8.13649 25.2327 -3.48774 179.958 -1.05424 6.61602 4.54188e-006 -4.6773e-006 -1.3769 -5.03773 -10.6334 -0.268214 1.97748e-006 2.79695e-007 -0.209909 24.4748 71.6434 -23.4354 -8.13649 25.2327 3.48774 
53.9606 94.1403 12.3568 -0.131173 -3.39455 -0.262344 0.142737 -1.49742 0.389217 0.298949 1.00903 0.775467 0.289817 2.65402 0.770793 -8.08525 21.6309 6.07005 3.21922 -13.3144 3.99051 82.2452 -4.10056 -4.13141 89.2539 11.3941 19.9679 -2.82914e-006 4.06839e-007 9.2969e-006 8.24934 20.3338 -2.86757 -1.2275e-006 -9.43724e-007 -3 8.02921 -4.95153 0.697703 -66.0549 -0.952891 1.38976 -107.846 1.66213 -11.1612 -1.78281e-005 2.34208e-007 -2.09019e-007 -5.92557 22.1205 2.52956 2.33131e-006 -1.16313e-006 3.00756 -8.02942 -4.9516 -0.697702 175.193 0.275401 1.14189 180 7.01587e-015 179.115 178.739 7.85347 179.453 2.7829e-006 3.15208e-006 -0.0934617 -14.193 67.4822 19.1319 8.13649 25.2327 -3.48774 179.961 -1.04713 6.61193 4.54188e-006 -4.6773e-006 -1.3769 -5.03918 -10.642 -0.268634 1.97748e-006 2.79695e-007 -0.209874 24.4806 71.6468 -23.4381 -8.13649 25.2327 3.48774 
53.9613 94.14 12.3504 -0.132521 -3.39166 -0.25797 0.14273 -1.49852 0.389127 0.298084 1.00682 0.775461 0.288957 2.65181 0.77081 -8.0888 21.6066 6.06588 3.22273 -13.289 3.98667 82.2387 -4.10195 -4.13152 89.2848 11.3408 19.9043 -2.82914e-006 4.06839e-007 9.2969e-006 8.28594 20.4268 -2.88271 -1.2275e-006 -9.43724e-007 -3 8.02921 -4.95153 0.697703 -66.0518 -0.96652 1.39667 -107.894 1.65032 -11.2098 -1.78281e-005 2.34208e-007 -2.09019e-007 -5.88148 22.126 2.5184 2.33131e-006 -1.16313e-006 3.00756 -8.02942 -4.9516 -0.697702 175.199 0.282682 1.13494 180 7.01587e-015 179.115 178.746 7.86541 179.452 2.7829e-006 3.15208e-006 -0.0934621 -14.1958 67.4906 19.1379 8.13649 25.2327 -3.48774 179.964 -1.03884 6.60804 4.54188e-006 -4.6773e-006 -1.3769 -5.04062 -10.6509 -0.269078 1.97748e-006 2.79695e-007 -0.209869 24.4864 71.6501 -23.4408 -8.13649 25.2327 3.48774 
53.9683 94.141 12.335 -0.133721 -3.38778 -0.253155 0.142716 -1.4998 0.38898 0.297265 1.00427 0.775283 0.288143 2.64926 0.770652 -8.09351 21.5824 6.06177 3.22682 -13.2639 3.98264 82.2307 -4.10341 -4.13157 89.3184 11.2858 19.8399 -2.82914e-006 4.06839e-007 9.2969e-006 8.3225 20.5245 -2.89842 -1.2275e-006 -9.43724e-007 -3 8.02921 -4.95153 0.697703 -66.0495 -0.979611 1.40339 -107.941 1.63838 -11.2593 -1.78281e-005 2.34208e-007 -2.09019e-007 -5.83705 22.131 2.50711 2.33131e-006 -1.16313e-006 3.00756 -8.02942 -4.9516 -0.697702 175.205 0.291166 1.12809 180 7.01587e-015 179.115 178.752 7.87736 179.451 2.7829e-006 3.15208e-006 -0.0934596 -14.1983 67.4988 19.1436 8.13649 25.2327 -3.48774 179.967 -1.02908 6.6044 4.54188e-006 -4.6773e-006 -1.3769 -5.04205 -10.66 -0.269552 1.97748e-006 2.79695e-007 -0.209899 24.4921 71.6532 -23.4435 -8.13649 25.2327 3.48774 
53.9659 94.139 12.3406 -0.134746 -3.38272 -0.247823 0.142696 -1.50128 0.388767 0.296497 1.00131 0.7749 0.287383 2.64631 0.770289 -8.09959 21.5581 6.05772 3.23159 -13.2392 3.97841 82.2211 -4.10494 -4.13154 89.3551 11.2289 19.7747 -2.82914e-006 4.06839e-007 9.2969e-006 8.359 20.6276 -2.9148 -1.2275e-006 -9.43724e-007 -3 8.02921 -4.95153 0.697703 -66.0483 -0.992069 1.40987 -107.987 1.6263 -11.3099 -1.78281e-005 2.34208e-007 -2.09019e-007 -5.7922 22.1354 2.4957 2.33131e-006 -1.16313e-006 3.00756 -8.02942 -4.9516 -0.697702 175.21 0.301066 1.12134 180 7.01587e-015 179.115 178.758 7.88933 179.449 2.7829e-006 3.15208e-006 -0.0934535 -14.2006 67.5068 19.1492 8.13649 25.2327 -3.48774 179.969 -1.01762 6.60107 4.54188e-006 -4.6773e-006 -1.3769 -5.04348 -10.6695 -0.27006 1.97748e-006 2.79695e-007 -0.209971 24.4978 71.6561 -23.4462 -8.13649 25.2327 3.48774 
